<svg xmlns="http://www.w3.org/2000/svg" width="22.056" height="22.056" viewBox="0 0 22.056 22.056"><path d="M15.176,7.141l.026-.026h.026l.026-.026h.026a.077.077,0,0,1,.026-.052.071.071,0,0,1,.052-.026h.026l.026-.026a.117.117,0,0,0,.052-.013.117.117,0,0,1,.052-.013l.026-.026h.052l.078-.026h.156l.052.026h.078v.026a.117.117,0,0,1,.052.013.117.117,0,0,0,.052.013l.026.026h.026a.077.077,0,0,1,.052.026l.052.052.052.026,6.343,6.343A.791.791,0,1,1,21.5,14.576L16.53,9.61V23.1a.748.748,0,0,1-.234.546.778.778,0,0,1-.572.234.8.8,0,0,1-.779-.779V9.61L9.98,14.576a.791.791,0,1,1-1.118-1.118l6.317-6.317Zm.546-.235Z" transform="translate(10.784 -10.984) rotate(45)" fill="#d9d9d9"/></svg>